<svg width="64" height="65" viewBox="0 0 64 65" fill="none" xmlns="http://www.w3.org/2000/svg">
<rect y="0.224854" width="64" height="64" rx="32" fill="#385193"/>
<path d="M30.5 44.2249H33.5V42.2249H36.5C36.925 42.2249 37.2813 42.081 37.569 41.7934C37.8563 41.506 38 41.1499 38 40.7249V34.2249C38 33.7999 37.8563 33.4435 37.569 33.1559C37.2813 32.8685 36.925 32.7249 36.5 32.7249H29V29.2249H38V26.2249H33.5V24.2249H30.5V26.2249H27.5C27.075 26.2249 26.7188 26.3685 26.4315 26.6559C26.1438 26.9435 26 27.2999 26 27.7249V34.2249C26 34.6499 26.1438 35.006 26.4315 35.2934C26.7188 35.581 27.075 35.7249 27.5 35.7249H35V39.2249H26V42.2249H30.5V44.2249ZM19 52.2249C18.2 52.2249 17.5 51.9249 16.9 51.3249C16.3 50.7249 16 50.0249 16 49.2249V15.2249C16 14.4249 16.3 13.7249 16.9 13.1249C17.5 12.5249 18.2 12.2249 19 12.2249H36.05L48 24.1749V49.2249C48 50.0249 47.7 50.7249 47.1 51.3249C46.5 51.9249 45.8 52.2249 45 52.2249H19ZM19 49.2249H45V25.5249L34.7 15.2249H19V49.2249Z" fill="white"/>
</svg>
