<svg width="64" height="65" viewBox="0 0 64 65" fill="none" xmlns="http://www.w3.org/2000/svg">
<rect y="0.224854" width="64" height="64" rx="32" fill="#385193"/>
<path d="M15.425 49.7499C14.645 49.7499 13.9625 49.4575 13.3775 48.8725C12.7925 48.2875 12.5 47.6049 12.5 46.8249V23.425C12.5 22.645 12.7925 21.9625 13.3775 21.3775C13.9625 20.7925 14.645 20.5 15.425 20.5H24.2V15.625C24.2 14.845 24.4925 14.1625 25.0775 13.5775C25.6625 12.9925 26.345 12.7 27.125 12.7H36.875C37.655 12.7 38.3375 12.9925 38.9225 13.5775C39.5075 14.1625 39.8 14.845 39.8 15.625V20.5H48.575C49.355 20.5 50.0375 20.7925 50.6225 21.3775C51.2075 21.9625 51.5 22.645 51.5 23.425V46.8249C51.5 47.6049 51.2075 48.2875 50.6225 48.8725C50.0375 49.4575 49.355 49.7499 48.575 49.7499H15.425ZM27.125 20.5H36.875V15.625H27.125V20.5ZM48.575 37.5137H36.4363V40.4387H27.6613V37.5137H15.425V46.8249H48.575V37.5137ZM30.5863 37.5137H33.5113V34.5887H30.5863V37.5137ZM15.425 34.5887H27.6613V31.6637H36.4363V34.5887H48.575V23.425H15.425V34.5887Z" fill="white"/>
</svg>
