<svg width="64" height="65" viewBox="0 0 64 65" fill="none" xmlns="http://www.w3.org/2000/svg">
<rect y="0.224854" width="64" height="64" rx="32" fill="#385193"/>
<path d="M19.4751 49.25C17.3751 49.25 15.6001 48.525 14.1501 47.075C12.7001 45.625 11.9751 43.85 11.9751 41.75C11.9751 39.65 12.7001 37.875 14.1501 36.425C15.6001 34.975 17.3751 34.25 19.4751 34.25C21.5751 34.25 23.3501 34.975 24.8001 36.425C26.2501 37.875 26.9751 39.65 26.9751 41.75C26.9751 43.85 26.2501 45.625 24.8001 47.075C23.3501 48.525 21.5751 49.25 19.4751 49.25ZM44.5251 49.25C42.4251 49.25 40.6501 48.525 39.2001 47.075C37.7501 45.625 37.0251 43.85 37.0251 41.75C37.0251 39.65 37.7501 37.875 39.2001 36.425C40.6501 34.975 42.4251 34.25 44.5251 34.25C46.6251 34.25 48.4001 34.975 49.8501 36.425C51.3001 37.875 52.0251 39.65 52.0251 41.75C52.0251 43.85 51.3001 45.625 49.8501 47.075C48.4001 48.525 46.6251 49.25 44.5251 49.25ZM19.4706 46.25C20.7069 46.25 21.7668 45.8098 22.6501 44.9294C23.5334 44.0491 23.9751 42.9908 23.9751 41.7544C23.9751 40.5181 23.5349 39.4583 22.6546 38.575C21.7743 37.6916 20.7159 37.25 19.4796 37.25C18.2433 37.25 17.1834 37.6901 16.3001 38.5705C15.4168 39.4508 14.9751 40.5091 14.9751 41.7455C14.9751 42.9818 15.4153 44.0416 16.2956 44.925C17.1759 45.8083 18.2343 46.25 19.4706 46.25ZM44.5206 46.25C45.7569 46.25 46.8168 45.8098 47.7001 44.9294C48.5834 44.0491 49.0251 42.9908 49.0251 41.7544C49.0251 40.5181 48.5849 39.4583 47.7046 38.575C46.8243 37.6916 45.7659 37.25 44.5296 37.25C43.2933 37.25 42.2334 37.6901 41.3501 38.5705C40.4668 39.4508 40.0251 40.5091 40.0251 41.7455C40.0251 42.9818 40.4653 44.0416 41.3456 44.925C42.2259 45.8083 43.2843 46.25 44.5206 46.25ZM32.0251 28.2C29.9251 28.2 28.1501 27.475 26.7001 26.025C25.2501 24.575 24.5251 22.8 24.5251 20.7C24.5251 18.6 25.2501 16.825 26.7001 15.375C28.1501 13.925 29.9251 13.2 32.0251 13.2C34.1251 13.2 35.9001 13.925 37.3501 15.375C38.8001 16.825 39.5251 18.6 39.5251 20.7C39.5251 22.8 38.8001 24.575 37.3501 26.025C35.9001 27.475 34.1251 28.2 32.0251 28.2ZM32.0206 25.2C33.2569 25.2 34.3168 24.7598 35.2001 23.8795C36.0834 22.9991 36.5251 21.9408 36.5251 20.7045C36.5251 19.4681 36.0849 18.4083 35.2046 17.525C34.3243 16.6416 33.2659 16.2 32.0296 16.2C30.7933 16.2 29.7334 16.6401 28.8501 17.5205C27.9668 18.4008 27.5251 19.4591 27.5251 20.6954C27.5251 21.9318 27.9653 22.9916 28.8456 23.875C29.7259 24.7583 30.7843 25.2 32.0206 25.2Z" fill="white"/>
</svg>
