<svg width="64" height="65" viewBox="0 0 64 65" fill="none" xmlns="http://www.w3.org/2000/svg">
<rect y="0.224854" width="64" height="64" rx="32" fill="#385193"/>
<path d="M40 37.9749C38.3333 37.9749 36.9167 37.3915 35.75 36.2249C34.5833 35.0582 34 33.6415 34 31.9749C34 30.3082 34.5833 28.8915 35.75 27.7249C36.9167 26.5582 38.3333 25.9749 40 25.9749C41.6667 25.9749 43.0833 26.5582 44.25 27.7249C45.4167 28.8915 46 30.3082 46 31.9749C46 33.6415 45.4167 35.0582 44.25 36.2249C43.0833 37.3915 41.6667 37.9749 40 37.9749ZM40 34.9749C40.85 34.9749 41.5625 34.6874 42.1375 34.1124C42.7125 33.5374 43 32.8249 43 31.9749C43 31.1249 42.7125 30.4124 42.1375 29.8374C41.5625 29.2624 40.85 28.9749 40 28.9749C39.15 28.9749 38.4375 29.2624 37.8625 29.8374C37.2875 30.4124 37 31.1249 37 31.9749C37 32.8249 37.2875 33.5374 37.8625 34.1124C38.4375 34.6874 39.15 34.9749 40 34.9749ZM28 51.9749V46.1749C28 45.4749 28.1667 44.8165 28.5 44.1999C28.8333 43.5832 29.3 43.0915 29.9 42.7249C30.8333 42.1582 31.8 41.6665 32.8 41.2499C33.8 40.8332 34.8333 40.4915 35.9 40.2249L40 45.5249L44.1 40.2249C45.1667 40.4915 46.1917 40.8332 47.175 41.2499C48.1583 41.6665 49.1167 42.1582 50.05 42.7249C50.65 43.0915 51.125 43.5832 51.475 44.1999C51.825 44.8165 52 45.4749 52 46.1749V51.9749H28ZM31 48.9749H38.85L34.75 43.6749C34.0833 43.9415 33.4333 44.2332 32.8 44.5499C32.1667 44.8665 31.5667 45.2082 31 45.5749V48.9749ZM41.15 48.9749H49V45.5749C48.4333 45.2082 47.8417 44.8665 47.225 44.5499C46.6083 44.2332 45.9667 43.9415 45.3 43.6749L41.15 48.9749ZM15 48.4749C14.175 48.4749 13.4688 48.181 12.8815 47.5934C12.2938 47.006 12 46.2999 12 45.4749V15.4749C12 14.6499 12.2938 13.9435 12.8815 13.3559C13.4688 12.7685 14.175 12.4749 15 12.4749H45C45.825 12.4749 46.5313 12.7685 47.119 13.3559C47.7063 13.9435 48 14.6499 48 15.4749V27.8249C47.6333 27.1582 47.2 26.5415 46.7 25.9749C46.2 25.4082 45.6333 24.9082 45 24.4749V15.4749H15V45.4749H25V48.4749H15ZM20 23.4749H37.05C37.5167 23.3082 37.9973 23.1832 38.492 23.0999C38.9867 23.0165 39.4893 22.9749 40 22.9749V20.4749H20V23.4749ZM20 31.9749H31C31 31.4749 31.0417 30.9665 31.125 30.4499C31.2083 29.9332 31.3333 29.4415 31.5 28.9749H20V31.9749ZM20 40.4749H27.9C28.4667 40.0415 29.0667 39.6832 29.7 39.3999C30.3333 39.1165 30.9833 38.8415 31.65 38.5749V37.4749H20V40.4749ZM15 45.4749V15.4749V24.4749V22.9749V45.4749Z" fill="white"/>
</svg>
