<svg width="64" height="65" viewBox="0 0 64 65" fill="none" xmlns="http://www.w3.org/2000/svg">
<rect y="0.224854" width="64" height="64" rx="32" fill="#385193"/>
<path d="M32 51.8499C29.5334 51.8499 27.2084 51.3832 25.025 50.4499C22.8417 49.5165 20.9417 48.2415 19.325 46.6249C17.7084 45.0082 16.425 43.1082 15.475 40.9249C14.525 38.7415 14.05 36.4044 14.05 33.9134C14.05 31.422 14.525 29.0887 15.475 26.9134C16.425 24.7377 17.7084 22.8332 19.325 21.1999C20.9417 19.5665 22.8417 18.2832 25.025 17.3499C27.2084 16.4165 29.5334 15.9499 32 15.9499C34.4667 15.9499 36.7917 16.4165 38.975 17.3499C41.1584 18.2832 43.0667 19.5665 44.7001 21.1999C46.3334 22.8332 47.6167 24.7377 48.55 26.9134C49.4834 29.0887 49.9501 31.422 49.9501 33.9134C49.9501 36.4044 49.4834 38.7415 48.55 40.9249C47.6167 43.1082 46.3334 45.0082 44.7001 46.6249C43.0667 48.2415 41.1584 49.5165 38.975 50.4499C36.7917 51.3832 34.4667 51.8499 32 51.8499ZM38.05 42.0499L40.15 39.9499L33.65 33.4499V23.9499H30.65V34.6499L38.05 42.0499ZM18.75 12.5999L20.85 14.6999L12.65 22.5999L10.55 20.4999L18.75 12.5999ZM45.25 12.5999L53.4501 20.4999L51.35 22.5999L43.1501 14.6999L45.25 12.5999ZM32.0021 48.8499C36.1674 48.8499 39.7 47.3992 42.6 44.4979C45.5 41.5962 46.9501 38.0629 46.9501 33.8979C46.9501 29.7325 45.4994 26.1999 42.598 23.2999C39.6964 20.3999 36.163 18.9499 31.998 18.9499C27.8327 18.9499 24.3 20.4005 21.4 23.3019C18.5 26.2035 17.05 29.7369 17.05 33.9019C17.05 38.0672 18.5007 41.5999 21.402 44.4999C24.3037 47.3999 27.837 48.8499 32.0021 48.8499Z" fill="white"/>
</svg>
