<svg width="64" height="65" viewBox="0 0 64 65" fill="none" xmlns="http://www.w3.org/2000/svg">
<rect y="0.224854" width="64" height="64" rx="32" fill="#385193"/>
<path d="M13.4487 45.5583V38.8916C13.4487 37.9472 13.7751 37.1555 14.4279 36.5166C15.0807 35.8777 15.8654 35.5583 16.7821 35.5583H22.2404C22.796 35.5583 23.3237 35.6972 23.8237 35.9749C24.3237 36.2527 24.7265 36.6277 25.0321 37.0999C25.8376 38.1833 26.8307 39.0305 28.0112 39.6416C29.1918 40.2527 30.4487 40.5583 31.7821 40.5583C33.1432 40.5583 34.414 40.2527 35.5946 39.6416C36.7751 39.0305 37.7543 38.1833 38.5321 37.0999C38.8932 36.6277 39.3168 36.2527 39.8029 35.9749C40.289 35.6972 40.796 35.5583 41.3237 35.5583H46.7821C47.7265 35.5583 48.5182 35.8777 49.1571 36.5166C49.796 37.1555 50.1154 37.9472 50.1154 38.8916V45.5583H38.4487V41.7666C37.4765 42.461 36.4279 42.9888 35.3029 43.3499C34.1779 43.711 33.0043 43.8916 31.7821 43.8916C30.5876 43.8916 29.421 43.7041 28.2821 43.3291C27.1432 42.9541 26.0876 42.4194 25.1154 41.7249V45.5583H13.4487ZM31.7821 38.8916C30.7265 38.8916 29.7265 38.6485 28.7821 38.1624C27.8376 37.6763 27.046 37.0027 26.4071 36.1416C25.9348 35.4472 25.3446 34.8985 24.6362 34.4958C23.9279 34.093 23.1571 33.8916 22.3237 33.8916C22.9348 32.8638 24.2265 32.0513 26.1987 31.4541C28.171 30.8569 30.0321 30.5583 31.7821 30.5583C33.5321 30.5583 35.3932 30.8569 37.3654 31.4541C39.3376 32.0513 40.6293 32.8638 41.2404 33.8916C40.4348 33.8916 39.671 34.093 38.9487 34.4958C38.2265 34.8985 37.6293 35.4472 37.1571 36.1416C36.546 37.0305 35.7682 37.711 34.8237 38.1833C33.8793 38.6555 32.8654 38.8916 31.7821 38.8916ZM18.4487 33.8916C17.0598 33.8916 15.8793 33.4055 14.9071 32.4333C13.9348 31.461 13.4487 30.2805 13.4487 28.8916C13.4487 27.4749 13.9348 26.2874 14.9071 25.3291C15.8793 24.3708 17.0598 23.8916 18.4487 23.8916C19.8654 23.8916 21.0529 24.3708 22.0112 25.3291C22.9696 26.2874 23.4487 27.4749 23.4487 28.8916C23.4487 30.2805 22.9696 31.461 22.0112 32.4333C21.0529 33.4055 19.8654 33.8916 18.4487 33.8916ZM45.1154 33.8916C43.7265 33.8916 42.546 33.4055 41.5737 32.4333C40.6015 31.461 40.1154 30.2805 40.1154 28.8916C40.1154 27.4749 40.6015 26.2874 41.5737 25.3291C42.546 24.3708 43.7265 23.8916 45.1154 23.8916C46.5321 23.8916 47.7196 24.3708 48.6779 25.3291C49.6362 26.2874 50.1154 27.4749 50.1154 28.8916C50.1154 30.2805 49.6362 31.461 48.6779 32.4333C47.7196 33.4055 46.5321 33.8916 45.1154 33.8916ZM31.7821 28.8916C30.3932 28.8916 29.2126 28.4055 28.2404 27.4333C27.2682 26.461 26.7821 25.2805 26.7821 23.8916C26.7821 22.4749 27.2682 21.2874 28.2404 20.3291C29.2126 19.3708 30.3932 18.8916 31.7821 18.8916C33.1987 18.8916 34.3862 19.3708 35.3446 20.3291C36.3029 21.2874 36.7821 22.4749 36.7821 23.8916C36.7821 25.2805 36.3029 26.461 35.3446 27.4333C34.3862 28.4055 33.1987 28.8916 31.7821 28.8916Z" fill="#F2F2F2"/>
</svg>
