<svg width="64" height="65" viewBox="0 0 64 65" fill="none" xmlns="http://www.w3.org/2000/svg">
<rect y="0.224854" width="64" height="64" rx="32" fill="#385193"/>
<path d="M29.1 49.0249C30.7 46.0582 32.7417 44.0332 35.225 42.9499C37.7083 41.8665 39.8667 41.3249 41.7 41.3249C42.4667 41.3249 43.175 41.3832 43.825 41.4999C44.475 41.6165 45.15 41.7749 45.85 41.9749C46.7167 40.7415 47.4583 39.2729 48.075 37.5689C48.6917 35.8649 49 34.0835 49 32.2249C49 27.4789 47.3532 23.459 44.0595 20.1654C40.7658 16.8717 36.746 15.2249 32 15.2249C27.2543 15.2249 23.2345 16.8717 19.9405 20.1654C16.6468 23.459 15 27.4789 15 32.2249C15 33.9249 15.25 35.5665 15.75 37.1499C16.25 38.7332 16.9333 40.1582 17.8 41.4249C19.1667 40.6915 20.5917 40.1415 22.075 39.7749C23.5583 39.4082 25.0833 39.2249 26.65 39.2249C27.6167 39.2249 28.5583 39.2915 29.475 39.4249C30.3917 39.5582 31.2333 39.7915 32 40.1249C31.5 40.4582 31 40.8165 30.5 41.1999C30 41.5832 29.55 41.9582 29.15 42.3249C28.6833 42.2582 28.2417 42.2249 27.825 42.2249H26.673C25.4243 42.2249 24.2 42.3582 23 42.6249C21.8 42.8915 20.65 43.3082 19.55 43.8749C20.8167 45.2082 22.275 46.3332 23.925 47.2499C25.575 48.1665 27.3 48.7582 29.1 49.0249ZM32.0235 52.2249C29.2745 52.2249 26.6833 51.6999 24.25 50.6499C21.8167 49.5999 19.6917 48.1665 17.875 46.3499C16.0583 44.5332 14.625 42.412 13.575 39.9864C12.525 37.561 12 34.9694 12 32.2114C12 29.4537 12.525 26.8665 13.575 24.4499C14.625 22.0332 16.0583 19.9165 17.875 18.0999C19.6917 16.2832 21.8128 14.8499 24.2385 13.7999C26.6638 12.7499 29.2555 12.2249 32.0135 12.2249C34.7712 12.2249 37.3583 12.7499 39.775 13.7999C42.1917 14.8499 44.3083 16.2832 46.125 18.0999C47.9417 19.9165 49.375 22.0337 50.425 24.4514C51.475 26.869 52 29.4524 52 32.2014C52 34.9504 51.475 37.5415 50.425 39.9749C49.375 42.4082 47.9417 44.5332 46.125 46.3499C44.3083 48.1665 42.1912 49.5999 39.7735 50.6499C37.3558 51.6999 34.7725 52.2249 32.0235 52.2249ZM26.656 35.2249C24.752 35.2249 23.125 34.5519 21.775 33.2059C20.425 31.8599 19.75 30.2349 19.75 28.3309C19.75 26.4269 20.423 24.7999 21.769 23.4499C23.115 22.0999 24.74 21.4249 26.644 21.4249C28.548 21.4249 30.175 22.0979 31.525 23.4439C32.875 24.7899 33.55 26.4149 33.55 28.3189C33.55 30.2229 32.877 31.8499 31.531 33.1999C30.185 34.5499 28.56 35.2249 26.656 35.2249ZM26.65 32.2249C27.7333 32.2249 28.6542 31.8457 29.4125 31.0874C30.1708 30.329 30.55 29.4082 30.55 28.3249C30.55 27.2415 30.1708 26.3207 29.4125 25.5624C28.6542 24.804 27.7333 24.4249 26.65 24.4249C25.5667 24.4249 24.6458 24.804 23.8875 25.5624C23.1292 26.3207 22.75 27.2415 22.75 28.3249C22.75 29.4082 23.1292 30.329 23.8875 31.0874C24.6458 31.8457 25.5667 32.2249 26.65 32.2249ZM41.7 37.5249C40.2333 37.5249 38.9833 37.0082 37.95 35.9749C36.9167 34.9415 36.4 33.6915 36.4 32.2249C36.4 30.7582 36.9167 29.5082 37.95 28.4749C38.9833 27.4415 40.2333 26.9249 41.7 26.9249C43.1667 26.9249 44.4167 27.4415 45.45 28.4749C46.4833 29.5082 47 30.7582 47 32.2249C47 33.6915 46.4833 34.9415 45.45 35.9749C44.4167 37.0082 43.1667 37.5249 41.7 37.5249Z" fill="white"/>
</svg>
